<svg id="Layer_1" data-name="Layer 1" xmlns="http://www.w3.org/2000/svg" viewBox="0 0 100 100"><defs><style>.cls-1{fill:#e5d85c;}.cls-2{fill:#1a1a1a;}</style></defs><rect class="cls-1" width="100" height="100"/><path class="cls-2" d="M31.18,76.94a49.2,49.2,0,0,1-17.6,3.86,20,20,0,0,1-8.23-1.46A9.4,9.4,0,0,1,1.08,76.1a2.68,2.68,0,0,1-.57-1.88,2.75,2.75,0,0,1,.81-1.78A6.41,6.41,0,0,1,3.4,70.93a14.66,14.66,0,0,1,2.42-.86A12.47,12.47,0,0,1,9,69.8c1.3,0,2.41,0,3.34.12s2.24.25,3.95.54,3.08.55,4.1.75,2.56.51,4.6.93q3.66.8,5.88,1.24a4.83,4.83,0,0,0,3-.35l.69-.34q9.69-4.39,21.45-17.55a.92.92,0,0,0,.13-1.06.94.94,0,0,0-.92-.57,42.64,42.64,0,0,1-8.23-.64,25.19,25.19,0,0,1-6-1.76A15.15,15.15,0,0,1,37,48.52a13.26,13.26,0,0,1-2.45-2.87,12.66,12.66,0,0,1-1.24-2.82,14.53,14.53,0,0,1,.1-8.18A21.74,21.74,0,0,1,37.9,26.5a23.12,23.12,0,0,1,7.61-5.91,1.41,1.41,0,0,1,1,0,1.28,1.28,0,0,1,.74.65,1.22,1.22,0,0,1,.08,1,1.29,1.29,0,0,1-.67.76A20.47,20.47,0,0,0,40,28.08a19.34,19.34,0,0,0-4,7.07,11.62,11.62,0,0,0-.14,6.94q1.38,4.74,7.11,7t14.93,1.7A4.31,4.31,0,0,0,61,49.21q2.12-2.57,5.28-6.48,8.91-10.92,13.05-15.07,8.55-8.51,15.23-8.45a10.89,10.89,0,0,1,2.57.29,1.82,1.82,0,0,1,.72.25,5.51,5.51,0,0,1,.74.57,2.43,2.43,0,0,1,.66,1.11,4.66,4.66,0,0,1,.2,1.73,13,13,0,0,1-1.33,4.57,39,39,0,0,1-3.36,5.76,42.59,42.59,0,0,1-5.37,6.2,59.51,59.51,0,0,1-7,5.81,42.47,42.47,0,0,1-8.63,4.65,40.91,40.91,0,0,1-9.91,2.67l-.89.1a4.94,4.94,0,0,0-3.21,1.73Q48.63,67.6,39.48,73A1,1,0,0,0,39,74.07a.91.91,0,0,0,.87.79,80.09,80.09,0,0,0,9.93.82A62.38,62.38,0,0,0,59.48,75a39.68,39.68,0,0,0,9.81-2.75,39.07,39.07,0,0,0,9-5.34,1.31,1.31,0,0,1,1-.29,1.25,1.25,0,0,1,.87.47,1.19,1.19,0,0,1,.27,1,1.42,1.42,0,0,1-.47.89,39.36,39.36,0,0,1-8.78,5.27A46.31,46.31,0,0,1,62,77.19a53.8,53.8,0,0,1-9.51,1,79.41,79.41,0,0,1-9.29-.33q-4.19-.42-9.07-1.26A5.38,5.38,0,0,0,31.18,76.94ZM9.23,72.39a17.09,17.09,0,0,0-4.17.47c-1.24.32-1.86.77-1.86,1.36A2,2,0,0,0,4.44,75.9q7.76,4.45,21.35.15c.43-.13.55-.33.35-.59a2.87,2.87,0,0,0-1.73-.74A71.57,71.57,0,0,0,9.23,72.39ZM94.6,21.78a9.45,9.45,0,0,0-2.7.42,18.75,18.75,0,0,0-2.66,1A16.07,16.07,0,0,0,86.39,25c-1,.81-2,1.54-2.77,2.18a33.81,33.81,0,0,0-3,2.84l-2.92,3.09c-.76.81-1.79,2-3.11,3.58l-3.07,3.69q-1.08,1.3-3.26,4-1.42,1.79-3,3.61a1,1,0,0,0-.08,1.24,1,1,0,0,0,1.11.49,42.06,42.06,0,0,0,16.24-7.56,55.87,55.87,0,0,0,6-5.34,41.46,41.46,0,0,0,4.5-5.46,34.48,34.48,0,0,0,2.76-4.82,10,10,0,0,0,1-3.56c0-.62-.06-1-.29-1A8,8,0,0,0,94.6,21.78Z"/></svg>