<svg id="Layer_1" data-name="Layer 1" xmlns="http://www.w3.org/2000/svg" viewBox="0 0 100 100"><defs><style>.cls-1{fill:#f9c33d;}</style></defs><path class="cls-1" d="M40.68,73.6V57.66a5.81,5.81,0,0,1,.54.42q8.52,8.49,17,17a11.52,11.52,0,0,1,3.65,7.51,11.29,11.29,0,0,1-3.43,9.2c-2.47,2.49-5,5-7.42,7.48-.38.38-.61.16-.87-.1q-1.82-1.78-3.6-3.59c-1.52-1.53-3.1-3-4.52-4.6a11.37,11.37,0,0,1,.55-15.47q1.74-1.73,3.46-3.47c.48-.48.53-.45.94.14A21,21,0,0,1,50.26,80a23.45,23.45,0,0,1,.07,7.84.44.44,0,0,1-.24.34,7.22,7.22,0,0,1-.08-.8,14.85,14.85,0,0,0-3.87-10.17c-.19-.22-.4-.44-.66-.14a10.69,10.69,0,0,0-2.82,4.53,7.39,7.39,0,0,0,.83,5.66c1.33,2.32,3.34,4,5.17,5.9.52.54,1.06,1,1.58,1.58.29.3.51.29.81,0,1.77-1.8,3.58-3.56,5.34-5.36a8.19,8.19,0,0,0,0-11.65c-3.13-3.16-6.3-6.27-9.43-9.42-.36-.37-.55-.32-.88,0-1.64,1.67-3.3,3.31-5,5A4.46,4.46,0,0,1,40.68,73.6Z"/><path class="cls-1" d="M48.39,61.9h1.39q11.82,0,23.64,0a11.44,11.44,0,0,1,10.86,7.32,12.18,12.18,0,0,1,.78,4.55c0,3.41,0,6.83,0,10.24,0,.44-.13.63-.6.63-3.76,0-7.52.06-11.28,0a11.29,11.29,0,0,1-10.67-9.16,14.41,14.41,0,0,1-.2-2.46c0-1.55,0-3.1,0-4.66,0-.4,0-.68.58-.57a21.53,21.53,0,0,1,13.58,8.71,4.66,4.66,0,0,1,.25.5l-.15.11c-.22-.23-.46-.44-.68-.67A14.71,14.71,0,0,0,66.19,72c-.54,0-.75.11-.72.68a10,10,0,0,0,1.45,5.24,7.37,7.37,0,0,0,5.75,3.32c2.89.2,5.78.17,8.67.23.36,0,.58-.1.57-.53,0-2.54,0-5.09,0-7.63a8.26,8.26,0,0,0-8.19-8.23c-4.46,0-8.93,0-13.39,0-.56,0-.6.31-.59.71,0,2.32,0,4.63,0,7,0,.12,0,.24,0,.53a5.63,5.63,0,0,1-.72-.53l-8.49-8.52c-.51-.51-1-1-1.54-1.51A9.24,9.24,0,0,1,48.39,61.9Z"/><path class="cls-1" d="M57.74,59.27a2.89,2.89,0,0,1,.29-.5L67,49.89q4.17-4.16,8.33-8.33a11.41,11.41,0,0,1,13.83-2.12A17.18,17.18,0,0,1,93,42.73l6.15,6.1c.3.29.49.57.11.94-1.55,1.51-3.09,3-4.65,4.56-1.37,1.34-2.69,2.75-4.16,4a11.26,11.26,0,0,1-14.14-.23c-1.52-1.33-2.93-2.79-4.38-4.2-.33-.32-.3-.62.08-.86a21.22,21.22,0,0,1,9.55-3.54,52.87,52.87,0,0,1,5.63,0,1.56,1.56,0,0,1,.86.34,15.86,15.86,0,0,0-11.17,4.33c2.53,3.06,6.3,4.3,9.71,2.68a17.21,17.21,0,0,0,4.6-3.53l3.56-3.53a.48.48,0,0,0,0-.79c-1.89-1.89-3.73-3.81-5.65-5.65a8.23,8.23,0,0,0-11.3.14c-3.21,3.17-6.38,6.37-9.57,9.55a.49.49,0,0,0,0,.8q2.43,2.41,4.86,4.86a6.29,6.29,0,0,1,.46.6Z"/><path class="cls-1" d="M76.86,23.05c-.14.16-.28.33-.43.48a14.32,14.32,0,0,0-4.37,9.07C71.89,34,72,34,73.38,34c3.1-.19,5.58-1.43,7-4.3a11.08,11.08,0,0,0,1-4.81c.06-2.21,0-4.42,0-6.63,0-.48-.16-.65-.66-.64-2.46,0-4.92,0-7.38,0a8.21,8.21,0,0,0-8.41,8.2c-.07,4.43,0,8.85,0,13.28,0,.51.17.72.73.72,2.17,0,4.34,0,6.51,0,.26,0,.52,0,.94-.08a3.77,3.77,0,0,1-.41.69q-5.2,5.21-10.41,10.37A2.76,2.76,0,0,1,62,51v-1c0-8.08-.06-16.17,0-24.25A11.28,11.28,0,0,1,73,14.48c3.7-.09,7.4,0,11.1-.05.38,0,.51.17.51.53,0,3.88.06,7.77-.05,11.66a11.14,11.14,0,0,1-9.32,10.3,55.67,55.67,0,0,1-5.93.24c-.35,0-.71,0-1.06,0s-.61-.12-.51-.59A20.3,20.3,0,0,1,72.19,27a53.52,53.52,0,0,1,4.08-3.88,1.79,1.79,0,0,1,.45-.25Z"/><path class="cls-1" d="M23.07,77l.82-.87A15,15,0,0,0,28,66.52c0-.37-.05-.63-.48-.6-2.12.15-4.2.42-5.93,1.83a7.58,7.58,0,0,0-2.85,5.32c-.2,2-.2,4-.26,5.94,0,.91,0,1.82,0,2.73,0,.43.09.64.58.64,2.71,0,5.42,0,8.13,0a8.24,8.24,0,0,0,7.63-7.08c.14-1.58.11-3.17.12-4.76,0-3.19,0-6.37,0-9.56,0-.62-.17-.82-.81-.81-2.29,0-4.59,0-6.88,0a5,5,0,0,1-.56-.08L38,48.82a4.62,4.62,0,0,1,.11.63q0,12.31,0,24.63a11.25,11.25,0,0,1-7.59,10.76,12.94,12.94,0,0,1-3.76.63c-3.58.1-7.16,0-10.73.08-.44,0-.64-.12-.63-.6,0-3.59,0-7.19,0-10.79A11.27,11.27,0,0,1,25.13,63a49.39,49.39,0,0,1,5.58-.16l1,0c.41,0,.62.15.52.61a20.81,20.81,0,0,1-7,12.2l-1.46,1.25a4.26,4.26,0,0,1-.5.32Z"/><path class="cls-1" d="M26.56,40.67H42.25a5.76,5.76,0,0,1-.53.7c-5.66,5.66-11.37,11.26-17,17A11.53,11.53,0,0,1,10.24,60.1a20.29,20.29,0,0,1-2.93-2.56C5.09,55.37,2.92,53.16.72,51c-.26-.25-.32-.4,0-.69,2.57-2.55,5.11-5.12,7.67-7.67a11.4,11.4,0,0,1,16-.13c1.26,1.22,2.49,2.48,3.74,3.71.26.25.25.43,0,.63a21.32,21.32,0,0,1-8.9,3.55,21.59,21.59,0,0,1-6.42,0L12,50.25v-.19a8.76,8.76,0,0,1,1-.08,14.57,14.57,0,0,0,9.55-3.72c.57-.46.57-.57,0-1a18.25,18.25,0,0,0-2.37-1.77,7,7,0,0,0-8.21.46,71.18,71.18,0,0,0-5.34,4.8,21.31,21.31,0,0,0-1.55,1.6.62.62,0,0,0,0,.6c2,2.05,4,4.19,6.19,6.08A8,8,0,0,0,22,56.61c2.26-2.12,4.4-4.37,6.59-6.56,1-1,2-2,3-3,.41-.4.4-.64,0-1-1.6-1.53-3.15-3.1-4.71-4.66-.16-.16-.28-.34-.42-.51Z"/><path class="cls-1" d="M49.89,12c0,.21,0,.42,0,.64a14.79,14.79,0,0,0,3.85,10c.31.37.55.4.89,0a10.21,10.21,0,0,0,2.75-4.84,7.07,7.07,0,0,0-1.46-6c-1.44-1.83-3.1-3.48-4.68-5.2-.48-.52-1-1-1.49-1.49-.32-.32-.54-.38-.91,0C47.14,7,45.36,8.76,43.6,10.53a8.26,8.26,0,0,0,0,11.81l9.12,9.11c.67.67.67.66,1.34,0l4.68-4.7c.1-.09.23-.16.44-.31V42.2a2.38,2.38,0,0,1-.39-.26q-8.67-8.67-17.35-17.37a11.36,11.36,0,0,1,0-16.29c2.49-2.51,5-5,7.47-7.53.38-.39.6-.18.86.09,1.69,1.67,3.38,3.34,5.05,5C56,7,57.12,8.05,58.11,9.26a11.28,11.28,0,0,1-.45,14.86c-1.23,1.34-2.55,2.59-3.84,3.88-.23.24-.46.37-.7,0a20,20,0,0,1-3.6-9.65,55.23,55.23,0,0,1,.08-5.75,2.93,2.93,0,0,1,.13-.57Z"/><path class="cls-1" d="M50.92,38H49.08q-11.59,0-23.19,0A11.33,11.33,0,0,1,14.47,26.59c0-3.54,0-7.07,0-10.61,0-.41.07-.65.57-.65,3.64,0,7.28,0,10.92,0a10.93,10.93,0,0,1,7.26,2.76,11,11,0,0,1,3.94,8.38c0,1.73,0,3.47,0,5.2,0,.41-.14.58-.56.49A20.78,20.78,0,0,1,25,25.81c-.69-.76-1.33-1.58-2-2.37-.06-.07-.09-.17,0-.36.24.22.49.43.72.66A15.05,15.05,0,0,0,33.44,28c.36,0,.55-.07.56-.46,0-3.05-.81-5.72-3.46-7.54a8.06,8.06,0,0,0-4.25-1.4c-2.74-.13-5.49-.12-8.24-.18-.49,0-.51.32-.5.67,0,2,0,3.93,0,5.89a19.87,19.87,0,0,0,.14,3.09,8.18,8.18,0,0,0,8,6.82c4.47,0,8.93,0,13.4,0,.54,0,.7-.21.69-.75,0-2.33,0-4.67,0-7a3.2,3.2,0,0,1,.11-.42c3.82,3.71,7.46,7.44,11.16,11.09Z"/></svg>